Coordinates
version=1
nRows=65
nColumns=12
inDegrees=yes

Units are S.I. units (second, meters, Newtons, ...)
Angles are in degrees

endheader
time	SC_y	SC_z	SC_x	AC_y	AC_z	AC_x	GH_y	GH_z	GH_yy	EL_x	PS_y
       0.0              -47.41         -3.656          31.04          64.11         -14.75          4.774         -109.1         -19.22          132.5          69.38          33.25
    0.0363              -47.41         -3.652          31.04          64.11         -14.75          4.774         -109.1         -19.21          132.5          69.39          33.26
   0.07259               -47.4         -3.649          31.04          64.11         -14.75          4.775         -109.0         -19.21          132.4          69.39          33.28
    0.1089               -47.4         -3.645          31.03           64.1         -14.74          4.775         -109.0          -19.2          132.4          69.39          33.29
    0.1452              -47.39         -3.641          31.03           64.1         -14.74          4.775         -109.0          -19.2          132.4           69.4          33.31
    0.1815              -47.39         -3.636          31.03           64.1         -14.74          4.775         -108.9         -19.19          132.3           69.4          33.33
    0.2178              -47.38         -3.632          31.03           64.1         -14.74          4.776         -108.9         -19.18          132.3          69.41          33.35
    0.2541              -47.38         -3.627          31.03           64.1         -14.73          4.776         -108.9         -19.18          132.2          69.41          33.37
    0.2904              -47.37         -3.621          31.02          64.09         -14.73          4.777         -108.8         -19.17          132.2          69.42           33.4
    0.3267              -47.36         -3.616          31.02          64.09         -14.73          4.777         -108.8         -19.16          132.1          69.43          33.42
     0.363              -47.35          -3.61          31.02          64.09         -14.72          4.778         -108.7         -19.15          132.1          69.43          33.45
    0.3993              -47.35         -3.603          31.02          64.09         -14.72          4.778         -108.7         -19.14          132.0          69.44          33.48
    0.4356              -47.34         -3.596          31.01          64.08         -14.71          4.779         -108.6         -19.13          132.0          69.45          33.51
    0.4719              -47.33         -3.588          31.01          64.08         -14.71          4.779         -108.5         -19.12          131.9          69.46          33.54
    0.5082              -47.32          -3.58          31.01          64.07          -14.7           4.78         -108.5         -19.11          131.8          69.46          33.58
    0.5445              -47.31         -3.571           31.0          64.07          -14.7           4.78         -108.4          -19.1          131.8          69.47          33.62
    0.5808              -47.29         -3.561           31.0          64.07         -14.69          4.781         -108.3         -19.09          131.7          69.48          33.66
    0.6171              -47.28          -3.55          30.99          64.06         -14.69          4.782         -108.2         -19.07          131.6           69.5          33.71
    0.6534              -47.26         -3.539          30.99          64.06         -14.68          4.783         -108.1         -19.06          131.5          69.51          33.76
    0.6896              -47.25         -3.526          30.98          64.05         -14.67          4.784         -108.0         -19.04          131.4          69.52          33.81
    0.7259              -47.23         -3.512          30.98          64.04         -14.66          4.785         -107.9         -19.02          131.3          69.54          33.87
    0.7622              -47.21         -3.496          30.97          64.04         -14.65          4.786         -107.8          -19.0          131.1          69.55          33.94
    0.7985              -47.19         -3.479          30.96          64.03         -14.64          4.787         -107.6         -18.98          131.0          69.57          34.02
    0.8348              -47.16          -3.46          30.95          64.02         -14.63          4.789         -107.5         -18.95          130.8          69.59           34.1
    0.8711              -47.14         -3.439          30.95          64.01         -14.62          4.791         -107.3         -18.92          130.6          69.62          34.19
    0.9074              -47.11         -3.416          30.94           64.0         -14.61          4.792         -107.1         -18.89          130.4          69.64          34.29
    0.9437              -47.07          -3.39          30.92          63.99         -14.59          4.794         -106.9         -18.85          130.2          69.67          34.41
      0.98              -47.04          -3.36          30.91          63.98         -14.57          4.797         -106.7         -18.81          130.0           69.7          34.54
     1.016              -46.99         -3.327           30.9          63.96         -14.55          4.799         -106.4         -18.77          129.7          69.74          34.68
     1.053              -46.94         -3.289          30.88          63.94         -14.53          4.802         -106.1         -18.71          129.4          69.78          34.85
     1.089              -46.89         -3.246          30.86          63.93          -14.5          4.805         -105.7         -18.66          129.0          69.82          35.04
     1.125              -46.83         -3.196          30.84           63.9         -14.47          4.809         -105.3         -18.59          128.6          69.88          35.25
     1.162              -46.75         -3.139          30.82          63.88         -14.44          4.813         -104.8         -18.51          128.1          69.94           35.5
     1.198              -46.67         -3.072          30.79          63.85          -14.4          4.819         -104.3         -18.42          127.5          70.01          35.79
     1.234              -46.57         -2.994          30.75          63.81         -14.35          4.825         -103.6         -18.31          126.8           70.1          36.13
      1.27              -46.45         -2.902          30.71          63.77          -14.3          4.832         -102.9         -18.18          126.1           70.2          36.53
     1.307              -46.31         -2.793          30.67          63.72         -14.23           4.84         -102.0         -18.04          125.1          70.31          37.01
     1.343              -46.14         -2.662          30.61          63.66         -14.16           4.85         -100.9         -17.86          124.0          70.45          37.58
     1.379              -45.94         -2.504          30.54          63.59         -14.06          4.862          -99.6         -17.64          122.6          70.63          38.27
     1.416              -45.69         -2.311          30.46          63.51         -13.94          4.877         -98.01         -17.37          121.0          70.83          39.12
     1.452              -45.39         -2.072          30.36           63.4          -13.8          4.895         -96.04         -17.05          119.0          71.09          40.16
     1.488              -45.01         -1.774          30.23          63.27         -13.62          4.918         -93.59         -16.64          116.4          71.41          41.46
     1.524              -44.53         -1.399          30.07           63.1          -13.4          4.946          -90.5         -16.13          113.2          71.82          43.09
     1.561              -43.92        -0.9227          29.86          62.89         -13.11          4.983         -86.58         -15.47          109.1          72.33          45.17
     1.597              -43.14        -0.3126           29.6          62.61         -12.75          5.029         -81.55         -14.64          103.9          72.99          47.84
     1.633              -42.13         0.4702          29.26          62.26         -12.28          5.089          -75.1         -13.57          97.22          73.84          51.25
      1.67              -40.85           1.47          28.83          61.81         -11.68          5.166         -66.86          -12.2          88.67          74.92          55.62
     1.706              -39.24          2.728          28.29          61.25         -10.93          5.262          -56.5         -10.47          77.93          76.27           61.1
     1.742              -37.28           4.26          27.62          60.57         -10.01          5.379         -43.87         -8.376          64.83          77.93          67.79
     1.779              -35.01          6.036          26.86          59.77         -8.947          5.514         -29.24         -5.943          49.65          79.84          75.54
     1.815              -32.55          7.959          26.03          58.91         -7.795          5.661         -13.39         -3.309          33.21          81.92          83.94
     1.851              -30.09          9.883           25.2          58.05         -6.643          5.808          2.454        -0.6753          16.77          83.99          92.33
     1.887              -27.81          11.66          24.43          57.25          -5.58          5.944          17.09          1.757          1.584          85.91          100.1
     1.924              -25.85          13.19          23.77          56.57         -4.662          6.061          29.71          3.856         -11.51          87.57          106.8
      1.96              -24.24          14.45          23.23           56.0         -3.909          6.157          40.07          5.578         -22.26          88.92          112.3
     1.996              -22.96          15.45           22.8          55.56          -3.31          6.233          48.31          6.947         -30.81           90.0          116.6
     2.033              -21.96          16.23          22.46          55.21         -2.842          6.293          54.76           8.02          -37.5          90.85          120.0
     2.069              -21.18          16.84           22.2          54.93         -2.476           6.34          59.79          8.855         -42.72          91.51          122.7
     2.105              -20.57          17.32          21.99          54.72         -2.191          6.376          63.72          9.508         -46.79          92.02          124.8
     2.142              -20.09          17.69          21.83          54.55         -1.966          6.405          66.81          10.02          -50.0          92.43          126.4
     2.178              -19.71          17.99           21.7          54.42         -1.788          6.427          69.26          10.43         -52.54          92.75          127.7
     2.214              -19.41          18.23           21.6          54.31         -1.645          6.446          71.23          10.76         -54.58           93.0          128.8
      2.25              -19.16          18.42          21.51          54.22         -1.529           6.46          72.82          11.02         -56.23          93.21          129.6
     2.287              -18.96          18.58          21.45          54.15         -1.435          6.473          74.12          11.24         -57.59          93.38          130.3
     2.323              -18.79          18.71          21.39           54.1         -1.356          6.483           75.2          11.42         -58.71          93.52          130.9
